<svg xmlns="http://www.w3.org/2000/svg" viewBox="0 0 165.26 215.29"><g id="Layer_2" data-name="Layer 2"><g id="Layer_1-2" data-name="Layer 1"><path d="M127.51,115.13a19.25,19.25,0,0,0-15.42-7.77H84.58V98.28h21.17A12.37,12.37,0,0,0,118.2,86.56a12.08,12.08,0,0,0-12.08-12.45H84.58V61.26a18.51,18.51,0,0,0-18.5-18.49H57.33a18.51,18.51,0,0,0-18.5,18.49V89.32a65.9,65.9,0,1,0,87.89,85.45,3.08,3.08,0,0,0-5.68-2.38A59.74,59.74,0,1,1,38.83,96.14v23.12a21.44,21.44,0,0,0,21.42,21.41h44.41a7.86,7.86,0,0,1,5.86,2.62l31.84,35.52a13.46,13.46,0,0,0,10,4.55,12.68,12.68,0,0,0,6.66-1.88,12.93,12.93,0,0,0,6-8.63,13.09,13.09,0,0,0-2.32-10.21ZM159,171.68a6.81,6.81,0,0,1-3.17,4.56,7.12,7.12,0,0,1-8.87-1.53L115.1,139.18a14,14,0,0,0-10.44-4.67H60.25A15.27,15.27,0,0,1,45,119.26v-58A12.35,12.35,0,0,1,57.33,48.92h8.75A12.35,12.35,0,0,1,78.42,61.26V77.19a3.08,3.08,0,0,0,3.08,3.08h24.62a5.93,5.93,0,0,1,5.93,6.11,6.16,6.16,0,0,1-6.3,5.74H81.5a3.08,3.08,0,0,0-3.08,3.08v14.16a4.16,4.16,0,0,0,4.16,4.15h29.51a13.12,13.12,0,0,1,10.48,5.28l35.19,47.52A6.81,6.81,0,0,1,159,171.68Z" fill="#681642"/><path d="M61.33,40.67A20.34,20.34,0,1,0,41,20.34,20.35,20.35,0,0,0,61.33,40.67Zm0-34.51A14.18,14.18,0,1,1,47.14,20.34,14.2,14.2,0,0,1,61.33,6.16Z" fill="#681642"/></g></g></svg>